<svg width="500" height="500" viewBox="0 0 500 500" fill="none" xmlns="http://www.w3.org/2000/svg">
<path d="M476.5 250C476.5 254.31 473.041 260.382 461.776 267.371C450.915 274.107 434.7 280.448 413.999 285.879C372.707 296.713 315.252 303.5 251.5 303.5C187.748 303.5 130.293 296.713 89.001 285.879C68.2996 280.448 52.0851 274.107 41.2244 267.371C29.9585 260.382 26.5 254.31 26.5 250C26.5 245.69 29.9585 239.618 41.2244 232.629C52.0851 225.893 68.2996 219.552 89.001 214.121C130.293 203.287 187.748 196.5 251.5 196.5C315.252 196.5 372.707 203.287 413.999 214.121C434.7 219.552 450.915 225.893 461.776 232.629C473.041 239.618 476.5 245.69 476.5 250Z" stroke="black" stroke-width="15"/>
<path d="M455.86 344.136C454.057 348.052 448.375 352.119 435.219 353.753C422.536 355.328 405.156 354.303 384.081 350.575C342.045 343.139 287.02 325.265 229.116 298.592C171.212 271.919 121.867 241.716 88.8957 214.6C72.3656 201.006 60.2911 188.464 53.2453 177.801C45.9367 166.74 45.3357 159.778 47.1392 155.863C48.9426 151.948 54.6242 147.88 67.7805 146.246C80.4636 144.672 97.8433 145.697 118.918 149.425C160.955 156.861 215.979 174.734 273.883 201.407C331.788 228.08 381.133 258.284 414.104 285.399C430.634 298.993 442.709 311.536 449.754 322.199C457.063 333.26 457.664 340.221 455.86 344.136Z" stroke="black" stroke-width="15"/>
<path d="M397.885 420.87C394.611 423.674 387.75 424.998 375.113 420.989C362.931 417.124 347.567 408.936 329.974 396.748C294.883 372.439 252.348 333.222 210.871 284.807C169.393 236.392 137.168 188.344 118.531 149.938C109.187 130.683 103.453 114.244 101.503 101.614C99.4805 88.5115 101.841 81.9347 105.115 79.1303C108.388 76.3259 115.25 75.002 127.886 79.0111C140.068 82.8759 155.432 91.0645 173.025 103.252C208.117 127.561 250.652 166.778 292.129 215.193C333.606 263.608 365.832 311.656 384.469 350.062C393.812 369.317 399.547 385.756 401.496 398.386C403.519 411.489 401.158 418.065 397.885 420.87Z" stroke="black" stroke-width="15"/>
<path d="M307.614 467.89C303.44 468.965 296.697 467.13 287.12 457.963C277.887 449.126 267.704 435.005 257.281 416.312C236.492 379.027 215.59 325.08 199.69 263.343C183.791 201.605 176.034 144.272 176.228 101.584C176.324 80.1818 178.421 62.8985 182.236 50.7008C186.194 38.0481 191.211 33.1845 195.385 32.1095C199.56 31.0345 206.302 32.8695 215.879 42.0365C225.112 50.8739 235.296 64.9947 245.718 83.6875C266.507 120.972 287.41 174.919 303.309 236.657C319.209 298.395 326.965 355.727 326.772 398.416C326.675 419.818 324.579 437.101 320.763 449.299C316.806 461.952 311.788 466.815 307.614 467.89Z" stroke="black" stroke-width="15"/>
<path d="M213.478 471.764C209.229 471.036 203.829 466.601 198.845 454.316C194.04 442.473 190.531 425.42 188.676 404.099C184.976 361.57 187.996 303.795 198.769 240.959C209.542 178.124 225.941 122.642 243.597 83.7749C252.448 64.289 261.437 49.3792 269.913 39.8131C278.704 29.8902 285.273 27.5074 289.522 28.2358C293.77 28.9642 299.17 33.3991 304.154 45.6839C308.959 57.5268 312.468 74.5795 314.323 95.901C318.023 138.429 315.003 196.205 304.23 259.041C293.457 321.876 277.058 377.358 259.402 416.225C250.551 435.711 241.562 450.621 233.087 460.187C224.295 470.11 217.726 472.492 213.478 471.764Z" stroke="black" stroke-width="15"/>
<path d="M120.518 432.945C117.013 430.436 114.09 424.089 114.966 410.861C115.811 398.108 120.095 381.233 127.729 361.239C142.958 321.359 170.886 270.692 207.999 218.855C245.112 167.019 284.078 124.254 316.924 96.9872C333.391 83.3169 347.985 73.824 359.785 68.9151C372.026 63.8231 378.976 64.5456 382.481 67.0549C385.986 69.5642 388.909 75.911 388.033 89.1393C387.188 101.892 382.904 118.766 375.269 138.76C360.041 178.641 332.112 229.308 295 281.144C257.887 332.981 218.921 375.746 186.075 403.013C169.608 416.683 155.014 426.176 143.213 431.085C130.973 436.177 124.023 435.454 120.518 432.945Z" stroke="black" stroke-width="15"/>
<path d="M55.7587 360.952C53.6331 357.202 53.6478 350.215 60.0026 338.58C66.1288 327.363 77.1082 313.852 92.4393 298.918C123.019 269.132 169.656 234.895 225.118 203.457C280.579 172.019 333.91 149.591 375.174 138.654C395.862 133.171 413.095 130.691 425.865 131.196C439.112 131.72 445.115 135.297 447.24 139.047C449.366 142.797 449.351 149.785 442.997 161.42C436.87 172.636 425.891 186.147 410.56 201.081C379.98 230.867 333.344 265.105 277.882 296.542C222.42 327.98 169.089 350.408 127.825 361.345C107.137 366.828 89.9047 369.308 77.1342 368.803C63.8873 368.279 57.8843 364.702 55.7587 360.952Z" stroke="black" stroke-width="15"/>
</svg>
