<svg width="544" height="688" viewBox="0 0 544 688" fill="none" xmlns="http://www.w3.org/2000/svg">
<g opacity="0.1">
<path d="M8.31897 176.242C-29.5001 -1.38862 110.596 -19.4693 211.699 34.1659C270.688 61.7498 309.427 -24.034 382.503 10.2012C455.578 44.4364 367.976 152.277 479.79 207.624C591.605 262.971 537.018 510.606 439.29 513.459C341.562 516.312 368.416 557.964 270.688 653.252C172.96 748.54 8.31919 616.164 49.2592 476.37C90.1992 336.577 49.2587 368.53 8.31897 176.242Z" stroke="#CBCBCB" stroke-width="3"/>
<path d="M218.652 314.482C214.289 297.564 234.727 270.27 251.162 281.918C266.212 292.585 281.537 285.391 291.662 290.146C318.317 302.665 308.512 309.291 320.428 324.159C334.928 342.252 341.846 389.628 308.512 389.628C281.097 389.628 289.3 406.886 268.771 414.534C248.242 422.181 224.96 409.164 224.96 374.893C224.96 362.023 225.92 342.66 218.652 314.482Z" stroke="#CBCBCB" stroke-width="3"/>
<path d="M27.4375 187.946C-7.3402 24.9254 121.878 6.00727 215.284 55.8254C270.278 81.8713 306.889 3.23212 374.242 34.7873C443.097 67.0483 362.567 165.688 465.3 217.355C568.268 269.315 519.273 498.744 427.399 501.338C336.063 503.931 361.221 543.367 270.511 630.687C179.801 718.008 28.0111 596.482 65.2293 466.282C102.448 338.027 65.3162 365.314 27.4375 187.946Z" stroke="#CBCBCB" stroke-width="3"/>
<path d="M46.5561 199.651C14.8198 51.2412 133.16 31.4855 218.869 77.4866C269.869 101.995 304.351 30.4999 365.981 59.3751C430.616 89.6619 357.159 179.1 450.81 227.087C544.931 275.661 501.527 486.885 415.507 489.219C330.563 491.553 354.026 528.771 270.334 608.124C186.642 687.477 47.7031 576.803 81.1995 456.195C114.696 339.478 81.3737 362.101 46.5561 199.651Z" stroke="#CBCBCB" stroke-width="3"/>
<path d="M65.6748 211.357C36.98 77.5569 144.442 56.9636 222.454 99.1477C269.459 122.118 301.813 57.7676 357.72 83.9628C418.136 112.275 351.75 192.512 436.32 236.82C521.594 282.006 483.782 475.025 403.616 477.1C325.064 479.174 346.831 514.174 270.157 585.56C193.483 656.946 67.3952 557.123 97.1698 446.108C126.944 340.93 97.4313 358.887 65.6748 211.357Z" stroke="#CBCBCB" stroke-width="3"/>
<path d="M84.794 223.063C59.1405 103.873 155.725 82.4426 226.039 120.81C269.05 142.242 299.275 85.0362 349.46 108.551C405.655 134.89 346.343 205.925 421.83 246.553C498.258 288.353 466.037 463.166 391.725 464.981C319.565 466.797 339.636 499.579 269.981 562.998C200.325 626.416 87.0878 537.443 113.141 436.021C139.193 342.382 113.489 355.675 84.794 223.063Z" stroke="#CBCBCB" stroke-width="3"/>
<path d="M103.913 235.362C81.3008 130.783 167.007 108.514 229.624 143.065C268.641 162.959 296.737 112.898 341.199 133.733C393.175 158.097 340.935 219.931 407.341 256.879C474.921 295.292 448.292 451.9 379.834 453.456C314.066 455.012 332.442 485.577 269.804 541.028C207.166 596.479 106.78 518.357 129.111 426.528C151.442 344.427 129.547 353.055 103.913 235.362Z" stroke="#CBCBCB" stroke-width="3"/>
<path d="M123.033 248.363C103.462 158.394 178.29 135.288 233.211 166.021C268.233 184.377 294.2 141.461 332.939 159.616C380.695 182.006 335.527 234.639 392.852 267.907C451.586 302.933 430.547 441.335 367.943 442.632C308.567 443.929 325.248 472.276 269.628 519.76C214.009 567.244 126.473 499.973 145.082 417.737C163.692 347.174 145.606 351.137 123.033 248.363Z" stroke="#CBCBCB" stroke-width="3"/>
<path d="M142.152 261.403C125.623 186.044 189.574 162.101 236.797 189.017C267.824 205.835 291.663 170.063 324.68 185.538C368.215 205.954 330.12 249.386 378.363 278.973C428.25 310.613 412.803 430.81 356.053 431.847C303.069 432.885 318.054 459.014 269.453 498.531C220.851 538.048 146.166 481.627 161.054 408.984C175.941 349.96 161.664 349.258 142.152 261.403Z" stroke="#CBCBCB" stroke-width="3"/>
<path d="M161.273 274.499C147.785 213.75 200.858 188.969 240.384 212.068C267.417 227.349 289.128 198.721 316.421 211.517C355.736 229.958 324.714 264.188 363.875 290.096C404.915 318.349 395.06 420.341 344.164 421.119C297.572 421.897 310.861 445.809 269.278 477.358C227.695 508.907 165.861 463.338 177.026 400.287C188.192 352.802 177.724 347.434 161.273 274.499Z" stroke="#CBCBCB" stroke-width="3"/>
<path d="M180.395 287.678C169.949 241.539 212.143 215.921 243.972 235.203C267.011 248.945 286.593 227.462 308.163 237.578C343.259 254.045 319.309 279.074 349.388 301.302C381.581 326.168 377.317 409.954 332.275 410.473C292.075 410.992 303.67 432.686 269.104 456.268C234.539 479.85 185.556 445.131 192.999 391.674C200.443 355.727 193.785 345.694 180.395 287.678Z" stroke="#CBCBCB" stroke-width="3"/>
<path d="M199.52 300.983C192.115 269.455 223.432 242.999 247.563 258.464C266.608 270.668 284.061 256.33 299.909 263.765C330.784 278.258 313.907 294.086 334.904 312.633C358.251 334.113 359.578 399.694 320.39 399.953C286.582 400.213 296.481 419.689 268.934 435.304C241.387 450.918 205.254 427.05 208.976 383.186C212.698 358.778 209.849 344.08 199.52 300.983Z" stroke="#CBCBCB" stroke-width="3"/>
</g>
</svg>
