<svg width="320" height="126" viewBox="0 0 320 126" fill="none" xmlns="http://www.w3.org/2000/svg">
<g clip-path="url(#clip0_257_5952)">
<rect width="320" height="126" rx="10" fill="#EEEEEE"/>
<g style="mix-blend-mode:lighten">
<rect y="5" width="307" height="126" rx="6" fill="#EEEEEE"/>
<g opacity="0.4">
<path d="M-13.0793 51.8107C-34.6146 -18.3382 45.1602 -25.4785 102.731 -4.29721C136.321 6.59606 158.38 -27.2812 199.992 -13.7612C241.603 -0.24123 191.72 42.3468 255.39 64.2041C319.061 86.0614 287.978 183.856 232.328 184.983C176.679 186.109 191.97 202.559 136.321 240.189C80.672 277.82 -13.0792 225.542 10.2333 170.336C33.5457 115.129 10.233 127.748 -13.0793 51.8107Z" stroke="white" stroke-width="2"/>
<path d="M106.691 106.404C104.206 99.7226 115.844 88.944 125.203 93.544C133.772 97.7563 142.499 94.9154 148.265 96.7933C163.443 101.737 157.86 104.354 164.645 110.226C172.901 117.371 176.841 136.08 157.86 136.08C142.248 136.08 146.919 142.896 135.23 145.916C123.54 148.936 110.283 143.795 110.283 130.261C110.283 125.178 110.829 117.532 106.691 106.404Z" stroke="white" stroke-width="2"/>
<path d="M-2.19268 56.4327C-21.9961 -7.94638 51.5845 -15.4174 104.772 4.25647C136.088 14.5424 156.935 -16.5134 195.288 -4.05177C234.496 8.68856 188.64 47.6428 247.139 68.0469C305.772 88.5667 277.873 179.172 225.557 180.196C173.548 181.22 187.873 196.794 136.22 231.278C84.5675 265.762 -1.86604 217.77 19.3271 166.352C40.5202 115.702 19.3766 126.478 -2.19268 56.4327Z" stroke="white" stroke-width="2"/>
<path d="M8.69423 61.0553C-9.37735 2.44595 58.009 -5.35587 106.814 12.8107C135.855 22.4892 155.49 -5.74508 190.584 5.65816C227.389 17.6188 185.561 52.9394 238.888 71.8902C292.484 91.0725 267.768 174.488 218.786 175.41C170.416 176.332 183.776 191.029 136.12 222.367C88.4633 253.705 9.34737 209.998 28.4212 162.368C47.495 116.275 28.5204 125.209 8.69423 61.0553Z" stroke="white" stroke-width="2"/>
<path d="M19.5807 65.678C3.24101 12.8385 64.4331 4.7059 108.855 21.365C135.621 30.4362 154.044 5.02342 185.88 15.3683C220.282 26.5493 182.481 58.2361 230.637 75.7337C279.195 93.5785 257.663 169.804 212.014 170.624C167.284 171.443 179.679 185.265 136.019 213.457C92.3586 241.648 20.5604 202.226 37.5149 158.385C54.4694 116.848 37.6638 123.94 19.5807 65.678Z" stroke="white" stroke-width="2"/>
<path d="M30.4678 70.3012C15.8599 23.2314 70.8578 14.7681 110.897 29.9198C135.389 38.3836 152.6 15.7923 181.176 25.0788C213.176 35.4802 179.401 63.5333 222.386 79.5776C265.906 96.0849 247.559 165.121 205.243 165.838C164.153 166.555 175.582 179.501 135.919 204.546C96.2546 229.591 31.7739 194.455 46.6091 154.402C61.4443 117.422 46.8078 122.671 30.4678 70.3012Z" stroke="white" stroke-width="2"/>
<path d="M41.3547 75.1582C28.4787 33.8582 77.2824 25.0642 112.939 38.7085C135.156 46.565 151.155 26.7951 176.472 35.0233C206.069 44.645 176.322 69.0643 214.135 83.6554C252.618 98.8253 237.454 160.672 198.472 161.287C161.022 161.901 171.486 173.972 135.818 195.87C100.15 217.769 42.9874 186.917 55.7033 150.652C68.4191 118.23 55.9516 121.637 41.3547 75.1582Z" stroke="white" stroke-width="2"/>
<path d="M52.2421 80.2925C41.098 44.7623 83.7074 35.6375 114.981 47.7744C134.923 55.0235 149.71 38.0752 171.769 45.2449C198.962 54.087 173.243 74.8726 205.885 88.0104C239.33 101.843 227.35 156.5 191.701 157.012C157.891 157.524 167.389 168.719 135.718 187.471C104.047 206.223 54.2013 179.657 64.7978 147.181C75.3944 119.314 65.0959 120.879 52.2421 80.2925Z" stroke="white" stroke-width="2"/>
<path d="M63.1295 85.4423C53.7172 55.6818 90.1325 46.2263 117.023 56.8558C134.691 63.4976 148.265 49.3707 167.066 55.4821C191.856 63.5445 170.164 80.6964 197.635 92.3809C226.042 104.876 217.246 152.343 184.931 152.753C154.76 153.163 163.293 163.482 135.618 179.087C107.943 194.693 65.4152 172.412 73.8924 143.724C82.3697 120.415 74.2402 120.137 63.1295 85.4423Z" stroke="white" stroke-width="2"/>
<path d="M74.0173 90.614C66.3369 66.6234 96.5579 56.837 119.065 65.9592C134.459 71.9936 146.821 60.6882 162.363 65.7412C184.75 73.024 167.085 86.5421 189.385 96.7734C212.754 107.931 207.142 148.209 178.16 148.516C151.63 148.823 159.197 158.267 135.518 170.726C111.84 183.185 76.6295 165.189 82.9874 140.29C89.3454 121.537 83.385 119.417 74.0173 90.614Z" stroke="white" stroke-width="2"/>
<path d="M84.9059 95.8184C78.9574 77.5975 102.984 67.4804 121.108 75.0952C134.227 80.5222 145.378 72.0383 157.661 76.033C177.645 82.5361 164.008 92.4205 181.135 101.199C199.467 111.018 197.039 144.107 171.391 144.312C148.5 144.517 155.102 153.084 135.419 162.397C115.737 171.71 87.8446 157.999 92.0832 136.888C96.3219 122.692 92.5305 118.73 84.9059 95.8184Z" stroke="white" stroke-width="2"/>
<path d="M95.7963 101.073C91.5797 88.6218 109.412 78.174 123.154 84.2813C133.998 89.101 143.937 83.4386 152.961 86.3749C170.542 92.0983 160.932 98.349 172.888 105.674C186.182 114.156 186.938 140.055 164.623 140.158C145.372 140.26 151.009 147.952 135.323 154.118C119.636 160.285 99.0616 150.859 101.181 133.536C103.3 123.897 101.678 118.093 95.7963 101.073Z" stroke="white" stroke-width="2"/>
</g>
</g>
</g>
<defs>
<clipPath id="clip0_257_5952">
<rect width="320" height="126" rx="10" fill="white"/>
</clipPath>
</defs>
</svg>
