<svg width="360" height="105" viewBox="0 0 360 105" fill="none" xmlns="http://www.w3.org/2000/svg">
<g clip-path="url(#clip0_241_5795)">
<rect width="360" height="105" fill="white"/>
<g clip-path="url(#clip1_241_5795)">
<rect width="360" height="105" fill="#404040"/>
<rect width="360" height="105" fill="#0080F3"/>
<path opacity="0.0526316" d="M-39.067 103.322C-30.3949 110.648 -2.67794 122.907 38.8131 113.336C90.6769 101.371 110.736 69.6565 157.025 53.2121C191.19 41.0748 282.992 22.8561 335.78 42.988" stroke="#EEEEEE" stroke-opacity="0.1" stroke-width="2"/>
<path opacity="0.105263" d="M-47.6211 87.9625C-40.2025 95.8242 -14.6555 109.856 28.1839 103.091C81.7331 94.6345 106.903 64.425 155.645 51.143C191.621 41.3399 285.919 29.3143 335.104 52.8397" stroke="#EEEEEE" stroke-opacity="0.1" stroke-width="2"/>
<path opacity="0.157895" d="M-54.0832 72.397C-47.9994 80.708 -24.9022 96.3589 18.8161 92.4742C73.464 87.6183 103.469 59.2448 154.13 49.2709C191.523 41.9094 287.284 36.2088 332.327 62.8699" stroke="#EEEEEE" stroke-opacity="0.1" stroke-width="2"/>
<path opacity="0.210526" d="M-58.4312 56.7633C-53.7488 65.4327 -33.3545 82.5309 10.7638 81.5692C65.9117 80.3672 100.423 54.1407 152.449 47.5841C190.848 42.7448 287.024 43.4315 327.431 72.9363" stroke="#EEEEEE" stroke-opacity="0.1" stroke-width="2"/>
<path opacity="0.263158" d="M-60.6651 41.2034C-57.4355 50.136 -39.9675 68.4942 4.06746 70.4662C59.1111 72.9311 97.7501 49.139 150.571 46.0715C189.556 43.8075 285.092 50.8741 320.421 82.8992" stroke="#EEEEEE" stroke-opacity="0.1" stroke-width="2"/>
<path opacity="0.315789" d="M-60.8088 25.8575C-59.0673 34.9556 -44.717 54.3726 -1.24794 59.2566C53.0884 65.3616 95.4323 44.2644 148.468 44.7197C187.613 45.0557 281.462 58.4248 311.326 92.6194" stroke="#EEEEEE" stroke-opacity="0.1" stroke-width="2"/>
<path opacity="0.368421" d="M-58.9093 10.8624C-58.675 20.0262 -47.5997 40.2894 -5.17272 48.0318C47.861 57.7099 93.4457 39.5389 146.116 43.5119C184.991 46.4443 276.125 65.9693 300.196 101.959" stroke="#EEEEEE" stroke-opacity="0.1" stroke-width="2"/>
<path opacity="0.421053" d="M-55.0352 -3.64805C-56.3106 5.4811 -48.6316 26.3684 -7.71152 36.8846C43.4385 50.0297 91.7648 34.9839 143.493 42.4312C181.672 47.9278 269.093 73.3949 287.108 110.785" stroke="#EEEEEE" stroke-opacity="0.1" stroke-width="2"/>
<path opacity="0.473684" d="M-49.2768 -17.546C-52.048 -8.55155 -47.8494 12.731 -8.88457 25.9056C39.8214 42.3739 90.3597 30.6181 140.579 41.458C177.644 49.4587 260.393 80.5888 272.155 118.97" stroke="#EEEEEE" stroke-opacity="0.1" stroke-width="2"/>
<path opacity="0.526316" d="M-41.7461 -30.7093C-45.9828 -21.948 -45.3106 -0.503303 -8.72794 15.1854C37.0003 34.7962 89.1969 26.4593 137.356 40.5731C172.901 50.9902 250.073 87.4422 255.452 126.394" stroke="#EEEEEE" stroke-opacity="0.1" stroke-width="2"/>
<path opacity="0.578947" d="M237.136 132.945C238.198 93.8498 167.45 52.4752 133.814 39.7559C88.2418 22.5229 34.9588 27.3496 -7.29074 4.81094C-32.9442 -8.87428 -37.4786 -24.4841 -35.7014 -34.9002" stroke="#EEEEEE" stroke-opacity="0.1" stroke-width="2"/>
<path opacity="0.631579" d="M217.358 138.521C224.85 99.7108 161.3 53.867 129.942 38.9848C87.4567 18.8213 33.671 20.0849 -4.6369 -5.13456C-20.4016 -15.513 -26.3728 -26.1268 -27.5001 -35.0779" stroke="#EEEEEE" stroke-opacity="0.1" stroke-width="2"/>
<path opacity="0.684211" d="M196.287 143.03C210.127 104.93 154.471 55.119 125.735 38.237C86.8013 15.364 33.1023 13.0507 -0.844276 -14.5733C-9.52095 -21.6339 -14.4254 -28.5341 -16.8119 -34.9002" stroke="#EEEEEE" stroke-opacity="0.1" stroke-width="2"/>
<path opacity="0.736842" d="M174.106 146.393C194.142 109.42 146.991 56.1876 121.191 37.4908C86.2357 12.1588 33.2116 6.29392 3.99828 -23.4319C-0.00439751 -27.5048 -2.93663 -31.4599 -5.00003 -35.2528" stroke="#EEEEEE" stroke-opacity="0.1" stroke-width="2"/>
<path opacity="0.789474" d="M151.009 148.541C177.021 113.1 138.891 57.0299 116.311 36.723C85.7171 9.20966 33.9489 -0.14256 9.78893 -31.6446C8.9472 -32.7421 8.17304 -33.8275 7.46304 -34.9002" stroke="#EEEEEE" stroke-opacity="0.1" stroke-width="2"/>
<path opacity="0.842105" d="M127.202 149.42C158.906 115.901 130.215 57.6067 111.101 35.9123C86.3109 7.77601 39.4861 -5.09821 19 -35.034" stroke="#EEEEEE" stroke-opacity="0.1" stroke-width="2"/>
<path opacity="0.894737" d="M102.897 148.991C139.945 117.759 121.007 57.8806 105.569 35.0363C87.0161 7.58324 47.4905 -8.0934 29.5 -35.0144" stroke="#EEEEEE" stroke-opacity="0.1" stroke-width="2"/>
<path opacity="0.947368" d="M78.3118 147.228C120.298 118.627 111.321 57.8187 99.7279 34.0749C86.859 7.71813 54.5401 -9.83363 39.0745 -34.4002" stroke="#EEEEEE" stroke-opacity="0.1" stroke-width="2"/>
<path d="M53.6688 144.119C100.134 118.461 101.215 57.3901 93.5942 33.0069C85.6076 7.45407 59.0888 -11.4447 46.6084 -34.9002" stroke="#EEEEEE" stroke-opacity="0.1" stroke-width="2"/>
</g>
<rect x="0.5" y="0.5" width="359" height="104" stroke="white" stroke-opacity="0.1"/>
</g>
<defs>
<clipPath id="clip0_241_5795">
<rect width="360" height="105" fill="white"/>
</clipPath>
<clipPath id="clip1_241_5795">
<rect width="360" height="105" fill="white"/>
</clipPath>
</defs>
</svg>
