<svg width="18" height="18" viewBox="0 0 18 18" fill="none" xmlns="http://www.w3.org/2000/svg">
<path d="M11.8335 7.11108L8.05563 10.8889L6.16671 9.00002M10.177 0.933315L11.3301 1.91603C11.6206 2.16361 11.9814 2.31329 12.3619 2.34365L13.8721 2.46401C14.76 2.53487 15.4653 3.2397 15.5361 4.12763L15.6562 5.63812C15.6866 6.01862 15.8368 6.37986 16.0844 6.67038L17.0666 7.82322C17.6444 8.50118 17.6445 9.49844 17.0667 10.1764L16.0845 11.3294C15.8369 11.6199 15.6869 11.9813 15.6565 12.3618L15.5357 13.8721C15.4648 14.76 14.7606 15.4653 13.8727 15.5361L12.362 15.6567C11.9815 15.687 11.6204 15.8363 11.3299 16.0839L10.177 17.0666C9.49902 17.6444 8.50116 17.6445 7.82321 17.0667L6.6703 16.084C6.37978 15.8364 6.01871 15.6868 5.63822 15.6565L4.12745 15.5361C3.23954 15.4653 2.53536 14.7601 2.4645 13.8722L2.34368 12.3619C2.31332 11.9814 2.1633 11.6203 1.91572 11.3298L0.933447 10.1764C0.355698 9.49849 0.355427 8.50154 0.933176 7.82358L1.91634 6.67021C2.16391 6.37969 2.31249 6.01862 2.34285 5.63812L2.46367 4.12781C2.53453 3.23988 3.24074 2.53478 4.12866 2.46392L5.63776 2.34356C6.01825 2.31319 6.37949 2.16364 6.67001 1.91606L7.8233 0.933315C8.50126 0.355562 9.49902 0.355562 10.177 0.933315Z" stroke="#0C0C0C" stroke-linecap="round" stroke-linejoin="round"/>
</svg>
