<svg width="11" height="10" viewBox="0 0 11 10" fill="none" xmlns="http://www.w3.org/2000/svg">
<path d="M9.13786 1.29952L9.13835 1.30002C10.1857 2.39525 10.184 4.1013 9.1402 5.18768L9.14013 5.18776L5.21186 9.27815L1.28359 5.18776L1.28351 5.18768C0.239545 4.10109 0.238192 2.39504 1.28328 1.3022L1.28399 1.30145C1.52686 1.04643 1.81466 0.845081 2.13026 0.707953C2.44572 0.570885 2.78332 0.500408 3.12385 0.5C3.76573 0.500093 4.38781 0.751033 4.86607 1.20895L5.21181 1.53998L5.5576 1.209C6.03594 0.75112 6.65804 0.500173 7.29997 0.5C7.64006 0.500304 7.97726 0.570558 8.29238 0.707295C8.60762 0.844088 8.89515 1.045 9.13786 1.29952ZM3.12359 0C2.71416 0.000443871 2.30886 0.0851932 1.931 0.249371C1.55315 0.413548 1.21021 0.653912 0.921914 0.956631C-0.30774 2.24248 -0.307218 4.25369 0.92296 5.53409L3.12359 0Z" fill="white" stroke="white"/>
</svg>
