<svg width="24" height="24" viewBox="0 0 24 24" fill="none" xmlns="http://www.w3.org/2000/svg">
<path d="M16.1379 8.29952L16.1383 8.30002C17.1857 9.39525 17.184 11.1013 16.1402 12.1877L16.1401 12.1878L12.2119 16.2782L8.28359 12.1878L8.28351 12.1877C7.23954 11.1011 7.23819 9.39504 8.28328 8.3022L8.28399 8.30145C8.52686 8.04643 8.81466 7.84508 9.13026 7.70795C9.44572 7.57089 9.78332 7.50041 10.1238 7.5C10.7657 7.50009 11.3878 7.75103 11.8661 8.20895L12.2118 8.53998L12.5576 8.209C13.0359 7.75112 13.658 7.50017 14.3 7.5C14.6401 7.5003 14.9773 7.57056 15.2924 7.7073C15.6076 7.84409 15.8951 8.045 16.1379 8.29952ZM10.1236 7C9.71416 7.00044 9.30886 7.08519 8.931 7.24937C8.55315 7.41355 8.21021 7.65391 7.92191 7.95663C6.69226 9.24248 6.69278 11.2537 7.92296 12.5341L10.1236 7Z" fill="black" stroke="#040404"/>
</svg>
