<svg width="24" height="24" viewBox="0 0 24 24" fill="none" xmlns="http://www.w3.org/2000/svg">
<g clip-path="url(#clip0_35_9)">
<path d="M16.4401 3.09998C15.5777 3.10106 14.7273 3.30317 13.9566 3.69027C13.1859 4.07737 12.516 4.63879 12.0001 5.32998C11.3003 4.39308 10.3226 3.70107 9.20627 3.35264C8.08998 3.0042 6.89218 3.01713 5.78368 3.38959C4.67518 3.76205 3.71258 4.47501 3.03317 5.4268C2.35376 6.37859 1.99222 7.5206 2.00013 8.68998C1.9982 9.8138 2.17369 10.9309 2.52013 12C4.10013 17 8.97013 19.99 11.3801 20.81C11.7848 20.9299 12.2155 20.9299 12.6201 20.81C15.0301 19.99 19.9001 17 21.4801 12C21.8266 10.9309 22.0021 9.8138 22.0001 8.68998C22.0022 7.95782 21.8601 7.23242 21.5818 6.55522C21.3035 5.87801 20.8945 5.26227 20.3782 4.74316C19.8618 4.22406 19.2483 3.81176 18.5726 3.52981C17.8969 3.24787 17.1723 3.10181 16.4401 3.09998Z" fill="black"/>
</g>
<defs>
<clipPath id="clip0_35_9">
<rect width="24" height="24" fill="white"/>
</clipPath>
</defs>
</svg>
