<svg width="24" height="24" viewBox="0 0 24 24" fill="none" xmlns="http://www.w3.org/2000/svg">
<g clip-path="url(#clip0_247_5900)">
<path d="M16.4401 3.10001C15.5777 3.10109 14.7273 3.3032 13.9566 3.6903C13.1859 4.0774 12.516 4.63882 12.0001 5.33001C11.3003 4.39311 10.3226 3.7011 9.20627 3.35267C8.08998 3.00423 6.89218 3.01716 5.78368 3.38962C4.67518 3.76208 3.71258 4.47504 3.03317 5.42683C2.35376 6.37862 1.99222 7.52063 2.00013 8.69001C1.9982 9.81383 2.17369 10.9309 2.52013 12C4.10013 17 8.97013 19.99 11.3801 20.81C11.7848 20.93 12.2155 20.93 12.6201 20.81C15.0301 19.99 19.9001 17 21.4801 12C21.8266 10.9309 22.0021 9.81383 22.0001 8.69001C22.0022 7.95785 21.8601 7.23245 21.5818 6.55525C21.3035 5.87804 20.8945 5.2623 20.3782 4.74319C19.8618 4.22409 19.2483 3.81179 18.5726 3.52985C17.8969 3.2479 17.1723 3.10184 16.4401 3.10001Z" fill="#292D32"/>
</g>
<defs>
<clipPath id="clip0_247_5900">
<rect width="24" height="24" fill="white"/>
</clipPath>
</defs>
</svg>
