<svg width="24" height="24" viewBox="0 0 24 24" fill="none" xmlns="http://www.w3.org/2000/svg">
<g clip-path="url(#clip0_35_14)">
<path d="M12.62 20.81C12.2154 20.9299 11.7847 20.9299 11.38 20.81C8.48002 19.82 2.00002 15.69 2.00002 8.68998C1.99792 7.95782 2.14008 7.23242 2.41838 6.55522C2.69668 5.87801 3.10568 5.26227 3.622 4.74316C4.13832 4.22406 4.75185 3.81176 5.42755 3.52982C6.10324 3.24787 6.82787 3.10181 7.56002 3.09998C8.42382 3.09955 9.27563 3.30204 10.0468 3.69111C10.818 4.08019 11.4871 4.64498 12 5.33998C12.6977 4.40063 13.6745 3.70595 14.7908 3.35528C15.9071 3.00462 17.1057 3.01594 18.2152 3.38761C19.3247 3.75929 20.2882 4.47229 20.968 5.42464C21.6478 6.377 22.009 7.51993 22 8.68998C22 15.69 15.52 19.82 12.62 20.81Z" stroke="black" stroke-width="1.5" stroke-linecap="round" stroke-linejoin="round"/>
</g>
<defs>
<clipPath id="clip0_35_14">
<rect width="24" height="24" fill="white"/>
</clipPath>
</defs>
</svg>
