<svg width="24" height="24" viewBox="0 0 24 24" fill="none" xmlns="http://www.w3.org/2000/svg">
<path d="M17.5998 22.5601H6.39984C4.57985 22.5601 2.91985 21.1601 2.61985 19.3601L1.28984 11.4001C1.07984 10.1601 1.67984 8.57011 2.66984 7.78012L9.59986 2.23006C10.9399 1.15006 13.0499 1.16007 14.3999 2.24008L21.3299 7.78012C22.3098 8.57011 22.9098 10.1601 22.7099 11.4001L21.3798 19.3601C21.0798 21.1301 19.3898 22.5601 17.5998 22.5601ZM11.9899 2.94008C11.4599 2.94008 10.9298 3.10006 10.5398 3.41005L3.60985 8.9601C3.03985 9.42011 2.64985 10.44 2.76985 11.16L4.09986 19.1201C4.27986 20.1701 5.32985 21.0601 6.39984 21.0601H17.5998C18.6698 21.0601 19.7198 20.1701 19.8998 19.11L21.2298 11.1501C21.3498 10.4301 20.9498 9.40009 20.3898 8.95009L13.4598 3.41005C13.0598 3.10006 12.5298 2.94008 11.9899 2.94008Z" fill="black"/>
<path d="M12.0001 16.25C10.2101 16.25 8.75012 14.79 8.75012 13C8.75012 11.21 10.2101 9.75 12.0001 9.75C13.7901 9.75 15.2501 11.21 15.2501 13C15.2501 14.79 13.7901 16.25 12.0001 16.25ZM12.0001 11.25C11.0401 11.25 10.2501 12.04 10.2501 13C10.2501 13.96 11.0401 14.75 12.0001 14.75C12.9601 14.75 13.7501 13.96 13.7501 13C13.7501 12.04 12.9601 11.25 12.0001 11.25Z" fill="black"/>
</svg>
