<svg width="24" height="24" viewBox="0 0 24 24" fill="none" xmlns="http://www.w3.org/2000/svg">
<path d="M20.86 8.37004L13.93 2.83003C12.86 1.97003 11.13 1.97003 10.07 2.82004L3.14002 8.37004C2.36002 8.99003 1.86003 10.3 2.03002 11.28L3.36003 19.2401C3.60003 20.66 4.96002 21.81 6.40002 21.81H17.6C19.03 21.81 20.4001 20.6501 20.6401 19.2401L21.97 11.28C22.13 10.3 21.6301 8.99003 20.86 8.37004ZM12.0001 15.5C10.62 15.5 9.50002 14.3801 9.50002 13.0001C9.50002 11.62 10.62 10.5 12.0001 10.5C13.3801 10.5 14.5 11.62 14.5 13.0001C14.5 14.3801 13.3801 15.5 12.0001 15.5Z" fill="black"/>
</svg>
