<?xml version="1.0" encoding="UTF-8"?>
<svg id="Layer_1" data-name="Layer 1" xmlns="http://www.w3.org/2000/svg" viewBox="0 0 162.9 236.7">
  <path d="M120.6,158.8c-2-.2-3.6-.4-5.1-.4-5.3,0-10.7,0-16,0-8.1,0-11.7-5.6-8.1-12.9,.9-1.8,3.9-3.5,5.9-3.5,19.8-.2,39.7-.2,59.5,0,4.6,0,6.1,2.4,6.1,7.8-.1,6.7-1.3,8.5-6.3,8.5-3.4,0-5.1,.9-5.8,4.4-3.7,17.9-13.2,32.1-27.4,43.4-1.4,1.1-2.6,2.4-3.3,3.1,3.9,6.2,8.1,11.6,11,17.6,3.5,7.1,1.6,9.9-6.3,9.9-33.3,.1-66.6,.1-100,0-7.3,0-9.3-2.9-6-9.4,2.8-5.4,6.4-10.5,10.3-15.1,2.5-2.9,2.7-4.1-.3-6.6C11.6,191.7,1.7,173.9,.2,151.7c-2.3-33.4,16.7-71,56.7-79,3.8-.8,4.7-2.2,2.8-5.8-5.8-10.9-11.4-21.8-17.2-32.7-1.8-3.4-3.1-6.4,.3-10,1-1,.4-4.4-.5-6.2-3.4-7.1-3.2-8.1,3.5-11.7,3.2-1.7,6.6-3.2,9.7-5.1,4.4-2.5,7.2-1,9.2,3.2,1.6,3.6,3.2,6.6,8.4,5.5,1.5-.3,4.6,2.9,5.7,5.1,10.9,20.6,21.6,41.3,32.3,62,3.4,6.6,6.9,13.3,10.4,19.9,1.7,3.2,2.1,6-1.6,8-3,1.7-1.7,3.8-.7,6,3.4,7.3,3.3,7.7-3.7,11.6-1,.6-2,1.1-3.1,1.7-8.7,4.6-9,4.5-13.9-3.8-1.5-2.6-3.2-2.6-5.4-1.5-3.8,2-6.3,.4-8.2-2.9-2.2-3.9-4.1-8.1-6.8-11.6-1.2-1.6-4.1-3.1-6.1-2.9-22.1,2.7-41.9,22-40,48.4,1.7,23.1,21.3,41.6,45,41.6,19.3,0,36.7-11.9,42.6-29,.4-1,.5-2.2,.8-3.8Zm-35.9,55.9c0-6.7-4.5-11.4-11.1-11.4-6.2,0-11.1,4.7-11.2,10.9-.1,6.2,4.6,11.3,10.7,11.4,6.6,.2,11.5-4.4,11.6-10.9Z"/>
</svg>