<svg width="8" height="9" viewBox="0 0 8 9" fill="none" xmlns="http://www.w3.org/2000/svg">
<path d="M0.5 1.26202C0.5 0.565025 1.06503 0 1.76202 0V0C2.45901 0 3.02404 0.565026 3.02404 1.26202V7.15144C3.02404 7.84844 2.45901 8.41346 1.76202 8.41346V8.41346C1.06503 8.41346 0.5 7.84844 0.5 7.15144V1.26202ZM4.70673 1.26202C4.70673 0.565025 5.27176 0 5.96875 0V0C6.66574 0 7.23077 0.565026 7.23077 1.26202V7.15144C7.23077 7.84844 6.66574 8.41346 5.96875 8.41346V8.41346C5.27176 8.41346 4.70673 7.84844 4.70673 7.15144V1.26202Z" fill="white"/>
</svg>
