<svg width="24" height="24" viewBox="0 0 24 24" fill="none" xmlns="http://www.w3.org/2000/svg">
<path d="M19 10.75H17C14.5801 10.75 13.25 9.42 13.25 6.99999V5C13.25 2.58 14.5801 1.25 17 1.25H19C21.4201 1.25 22.75 2.58 22.75 5V6.99999C22.75 9.42 21.4201 10.75 19 10.75ZM17 2.75C15.4201 2.75 14.75 3.42 14.75 5V6.99999C14.75 8.58 15.4201 9.24999 17 9.24999H19C20.5801 9.24999 21.25 8.58 21.25 6.99999V5C21.25 3.42 20.5801 2.75 19 2.75H17Z" fill="black"/>
<path d="M7.00011 22.75H5.00012C2.58012 22.75 1.25012 21.42 1.25012 19V17.0001C1.25012 14.58 2.58012 13.2501 5.00012 13.2501H7.00011C9.42012 13.2501 10.7501 14.58 10.7501 17.0001V19C10.7501 21.42 9.42012 22.75 7.00011 22.75ZM5.00012 14.7501C3.42012 14.7501 2.75012 15.42 2.75012 17.0001V19C2.75012 20.58 3.42012 21.25 5.00012 21.25H7.00011C8.58012 21.25 9.25011 20.58 9.25011 19V17.0001C9.25011 15.42 8.58012 14.7501 7.00011 14.7501H5.00012Z" fill="black"/>
<path d="M6.00012 10.75C3.38012 10.75 1.25012 8.61999 1.25012 6C1.25012 3.38 3.38012 1.25 6.00012 1.25C8.62011 1.25 10.7501 3.38 10.7501 6C10.7501 8.61999 8.62011 10.75 6.00012 10.75ZM6.00012 2.75C4.21011 2.75 2.75012 4.20999 2.75012 6C2.75012 7.79 4.21011 9.24999 6.00012 9.24999C7.79012 9.24999 9.25011 7.79 9.25011 6C9.25011 4.20999 7.79012 2.75 6.00012 2.75Z" fill="black"/>
<path d="M18.0001 22.75C15.38 22.75 13.25 20.62 13.25 18C13.25 15.3801 15.38 13.2501 18.0001 13.2501C20.62 13.2501 22.75 15.3801 22.75 18C22.75 20.62 20.62 22.75 18.0001 22.75ZM18.0001 14.7501C16.21 14.7501 14.75 16.21 14.75 18C14.75 19.7901 16.21 21.25 18.0001 21.25C19.79 21.25 21.25 19.7901 21.25 18C21.25 16.21 19.79 14.7501 18.0001 14.7501Z" fill="black"/>
</svg>
