<svg width="24" height="24" viewBox="0 0 24 24" fill="none" xmlns="http://www.w3.org/2000/svg">
<g clip-path="url(#clip0_247_5945)">
<path d="M12 2C10.0222 2 8.08879 2.58649 6.4443 3.6853C4.79981 4.78412 3.51809 6.3459 2.76121 8.17317C2.00433 10.0004 1.8063 12.0111 2.19215 13.9509C2.578 15.8907 3.53041 17.6725 4.92894 19.0711C6.32746 20.4696 8.10929 21.422 10.0491 21.8079C11.9889 22.1937 13.9996 21.9957 15.8268 21.2388C17.6541 20.4819 19.2159 19.2002 20.3147 17.5557C21.4135 15.9112 22 13.9778 22 12C22 9.34784 20.9464 6.8043 19.0711 4.92893C17.1957 3.05357 14.6522 2 12 2ZM17.19 15.94C17.1521 16.0293 17.0979 16.1107 17.03 16.18L15.34 17.87C15.2705 17.9398 15.1879 17.9952 15.097 18.0329C15.006 18.0707 14.9085 18.0902 14.81 18.0902C14.7115 18.0902 14.614 18.0707 14.523 18.0329C14.4321 17.9952 14.3495 17.9398 14.28 17.87C14.1405 17.7289 14.0623 17.5384 14.0623 17.34C14.0623 17.1416 14.1405 16.9511 14.28 16.81L14.69 16.4H9.1C8.47707 16.3989 7.87995 16.151 7.43947 15.7105C6.99899 15.2701 6.75106 14.6729 6.75 14.05V12.28C6.75 12.0811 6.82902 11.8903 6.96967 11.7497C7.11033 11.609 7.30109 11.53 7.5 11.53C7.69892 11.53 7.88968 11.609 8.03033 11.7497C8.17099 11.8903 8.25 12.0811 8.25 12.28V14.05C8.24987 14.1617 8.27177 14.2723 8.31444 14.3754C8.35711 14.4786 8.41971 14.5724 8.49867 14.6513C8.57763 14.7303 8.67138 14.7929 8.77457 14.8356C8.87775 14.8782 8.98834 14.9001 9.1 14.9H14.69L14.28 14.49C14.1475 14.3478 14.0754 14.1598 14.0788 13.9655C14.0823 13.7712 14.161 13.5858 14.2984 13.4484C14.4358 13.311 14.6212 13.2323 14.8155 13.2288C15.0098 13.2254 15.1978 13.2975 15.34 13.43L17.03 15.12C17.0979 15.1893 17.1521 15.2707 17.19 15.36C17.2296 15.4516 17.25 15.5503 17.25 15.65C17.25 15.7497 17.2296 15.8484 17.19 15.94ZM17.25 11.72C17.25 11.9189 17.171 12.1097 17.0303 12.2503C16.8897 12.391 16.6989 12.47 16.5 12.47C16.3011 12.47 16.1103 12.391 15.9697 12.2503C15.829 12.1097 15.75 11.9189 15.75 11.72V9.95C15.7501 9.83834 15.7282 9.72775 15.6856 9.62456C15.6429 9.52138 15.5803 9.42762 15.5013 9.34867C15.4224 9.26971 15.3286 9.2071 15.2254 9.16443C15.1223 9.12176 15.0117 9.09987 14.9 9.1H9.31L9.72 9.5C9.85948 9.64114 9.93771 9.83157 9.93771 10.03C9.93771 10.2284 9.85948 10.4189 9.72 10.56C9.65051 10.6298 9.56791 10.6852 9.47696 10.7229C9.38601 10.7607 9.28849 10.7802 9.19 10.7802C9.09152 10.7802 8.994 10.7607 8.90305 10.7229C8.8121 10.6852 8.7295 10.6298 8.66 10.56L6.97 8.87C6.90214 8.8007 6.84787 8.7193 6.81 8.63C6.77045 8.54019 6.75002 8.44313 6.75002 8.345C6.75002 8.24687 6.77045 8.14981 6.81 8.06C6.84771 7.96764 6.90192 7.88292 6.97 7.81L8.66 6.12C8.72867 6.04631 8.81147 5.98721 8.90347 5.94622C8.99547 5.90523 9.09478 5.88319 9.19548 5.88141C9.29618 5.87963 9.39621 5.89816 9.4896 5.93588C9.58299 5.9736 9.66782 6.02974 9.73904 6.10096C9.81026 6.17218 9.86641 6.25701 9.90413 6.3504C9.94185 6.44379 9.96037 6.54382 9.9586 6.64452C9.95682 6.74523 9.93478 6.84454 9.89379 6.93654C9.85279 7.02854 9.79369 7.11134 9.72 7.18L9.31 7.59H14.9C15.5229 7.59106 16.1201 7.83899 16.5605 8.27947C17.001 8.71995 17.2489 9.31707 17.25 9.94V11.72Z" fill="#292D32"/>
</g>
<defs>
<clipPath id="clip0_247_5945">
<rect width="24" height="24" fill="white"/>
</clipPath>
</defs>
</svg>
