<svg width="24" height="24" viewBox="0 0 24 24" fill="none" xmlns="http://www.w3.org/2000/svg">
<path d="M18.9401 5.42001L13.7701 2.43C12.7801 1.86 11.2301 1.86 10.2401 2.43L5.02008 5.44001C2.95008 6.84 2.83008 7.05 2.83008 9.28V14.71C2.83008 16.94 2.95008 17.16 5.06007 18.58L10.2301 21.57C10.7301 21.86 11.3701 22 12.0001 22C12.6301 22 13.2701 21.86 13.76 21.57L18.98 18.56C21.05 17.16 21.17 16.95 21.17 14.72V9.28C21.17 7.05 21.05 6.84 18.9401 5.42001ZM12.0001 15.25C10.2101 15.25 8.75007 13.79 8.75007 12C8.75007 10.21 10.2101 8.75001 12.0001 8.75001C13.79 8.75001 15.2501 10.21 15.2501 12C15.2501 13.79 13.79 15.25 12.0001 15.25Z" fill="black"/>
</svg>
