<svg width="24" height="24" viewBox="0 0 24 24" fill="none" xmlns="http://www.w3.org/2000/svg">
<g clip-path="url(#clip0_35_38)">
<path d="M10.4661 2.3697L5.00413 5.5606C3.8927 6.32273 3.46627 6.66632 3.25197 7.04696C3.04658 7.4118 3 7.87783 3 9.10466V14.882C3 16.1084 3.04664 16.5764 3.25623 16.9459C3.47564 17.3328 3.91349 17.6853 5.04584 18.4579L10.4573 21.6286C10.8647 21.868 11.4213 22 12 22C12.5802 22 13.1339 21.8675 13.5273 21.6315L13.5335 21.6278L18.9959 18.4367C20.1073 17.6746 20.5337 17.331 20.7481 16.9504C20.9534 16.5855 21 16.1195 21 14.8926V9.10466C21 7.87784 20.9532 7.41354 20.7444 7.04723C20.5252 6.6625 20.0879 6.31292 18.9542 5.53946L13.5438 2.36934M10.4661 2.3697C10.4661 2.36967 10.466 2.36974 10.4661 2.3697ZM10.4661 2.3697C10.8703 2.134 11.4232 2 12.0052 2C12.5871 2 13.1397 2.13379 13.5438 2.36934M13.5438 2.36934C13.544 2.36947 13.5436 2.36923 13.5438 2.36934ZM7.95683 11.9987C7.95683 14.2558 9.77219 16.095 12 16.095C14.2279 16.095 16.0432 14.2558 16.0432 11.9987C16.0432 9.74158 14.2279 7.90238 12 7.90238C9.77219 7.90238 7.95683 9.74158 7.95683 11.9987Z" stroke="black"/>
</g>
<defs>
<clipPath id="clip0_35_38">
<rect width="24" height="24" fill="white"/>
</clipPath>
</defs>
</svg>
