<svg width="24" height="24" viewBox="0 0 24 24" fill="none" xmlns="http://www.w3.org/2000/svg">
<path d="M16.5 8.62999C16.09 8.62999 15.75 8.28999 15.75 7.87999V6.49999C15.75 5.44999 15.3 4.42999 14.52 3.72C13.73 3 12.71 2.67 11.63 2.76999C9.83 2.94 8.25 4.77999 8.25 6.69999V7.66999C8.25 8.07999 7.91 8.41999 7.5 8.41999C7.09 8.41999 6.75 8.07999 6.75 7.66999V6.69C6.75 3.99999 8.92 1.51999 11.49 1.26999C12.99 1.12999 14.43 1.59999 15.53 2.61C16.62 3.6 17.25 5.01999 17.25 6.49999V7.87999C17.25 8.28999 16.91 8.62999 16.5 8.62999Z" fill="black"/>
<path d="M15.0001 22.75H9.00006C4.38006 22.75 3.52007 20.6 3.30006 18.51L2.55006 12.52C2.44007 11.44 2.40006 9.89 3.45006 8.73C4.35006 7.73 5.84006 7.25 8.00006 7.25H16C18.1701 7.25 19.66 7.74 20.5501 8.73C21.5901 9.89 21.5601 11.44 21.4501 12.5L20.7001 18.51C20.4801 20.6 19.6201 22.75 15.0001 22.75ZM8.00006 8.75C6.31007 8.75 5.15006 9.08 4.56006 9.74C4.07006 10.28 3.91007 11.11 4.04006 12.35L4.79006 18.34C4.96007 19.94 5.40006 21.26 9.00006 21.26H15.0001C18.6001 21.26 19.0401 19.95 19.21 18.36L19.96 12.35C20.0901 11.13 19.93 10.3 19.4401 9.75C18.85 9.08 17.6901 8.75 16 8.75H8.00006Z" fill="black"/>
<path d="M15.42 13.1499C14.8599 13.1499 14.4099 12.6999 14.4099 12.15C14.4099 11.6 14.8599 11.15 15.4099 11.15C15.96 11.15 16.41 11.6 16.41 12.15C16.41 12.6999 15.9699 13.1499 15.42 13.1499Z" fill="black"/>
<path d="M8.42004 13.1499C7.86003 13.1499 7.41003 12.6999 7.41003 12.15C7.41003 11.6 7.86003 11.15 8.41003 11.15C8.96004 11.15 9.41004 11.6 9.41004 12.15C9.41004 12.6999 8.97003 13.1499 8.42004 13.1499Z" fill="black"/>
</svg>
