<svg width="24" height="24" viewBox="0 0 24 24" fill="none" xmlns="http://www.w3.org/2000/svg">
<g clip-path="url(#clip0_35_69)">
<path d="M19.956 8.95999C19.1304 8.15046 18.0316 7.67952 16.876 7.63999V6.87999C16.8748 6.19914 16.7314 5.52605 16.4551 4.90378C16.1788 4.28152 15.7756 3.72381 15.2713 3.26633C14.7671 2.80886 14.1729 2.4617 13.5267 2.24709C12.8806 2.03247 12.1967 1.95512 11.519 2.01999C10.3053 2.19796 9.19511 2.80352 8.38839 3.72757C7.58168 4.65163 7.13151 5.83341 7.11899 7.05999V7.63999C5.96341 7.67952 4.86456 8.15046 4.03899 8.95999C3.65914 9.45442 3.38871 10.0239 3.24562 10.6308C3.10253 11.2376 3.09004 11.868 3.20899 12.48L3.90899 18.05C4.11899 20 4.90899 22 9.20899 22H14.789C19.089 22 19.879 20 20.089 18.06L20.789 12.47C20.9046 11.8592 20.8902 11.231 20.7467 10.6262C20.6032 10.0214 20.3337 9.45364 19.956 8.95999ZM11.656 3.40999C12.1405 3.36179 12.6298 3.41566 13.0922 3.56813C13.5547 3.7206 13.98 3.96829 14.3409 4.29522C14.7017 4.62215 14.9901 5.02108 15.1873 5.46628C15.3845 5.91148 15.4863 6.39306 15.486 6.87999V7.57999H8.50899V7.05999C8.52318 6.1794 8.84596 5.33172 9.42105 4.66471C9.99614 3.9977 10.7871 3.55366 11.656 3.40999ZM8.41599 13.15H8.40599C8.13988 13.1487 7.88516 13.0419 7.6977 12.853C7.51023 12.6641 7.40533 12.4086 7.40599 12.1425C7.40665 11.8764 7.51283 11.6214 7.70123 11.4335C7.88963 11.2455 8.14488 11.14 8.41099 11.14C8.67709 11.14 8.93234 11.2455 9.12074 11.4335C9.30914 11.6214 9.41532 11.8764 9.41598 12.1425C9.41664 12.4086 9.31174 12.6641 9.12427 12.853C8.93681 13.0419 8.68209 13.1487 8.41599 13.15ZM15.416 13.15H15.406C15.1399 13.1487 14.8852 13.0419 14.6977 12.853C14.5102 12.6641 14.4053 12.4086 14.406 12.1425C14.4066 11.8764 14.5128 11.6214 14.7012 11.4335C14.8896 11.2455 15.1449 11.14 15.411 11.14C15.6771 11.14 15.9323 11.2455 16.1207 11.4335C16.3091 11.6214 16.4153 11.8764 16.416 12.1425C16.4166 12.4086 16.3117 12.6641 16.1243 12.853C15.9368 13.0419 15.6821 13.1487 15.416 13.15Z" fill="black"/>
</g>
<defs>
<clipPath id="clip0_35_69">
<rect width="24" height="24" fill="white"/>
</clipPath>
</defs>
</svg>
